normalP062_grf.mot
version=1
nRows=25
nColumns=19
inDegrees=yes
endheader
time	1_ground_force_vx	1_ground_force_vy	1_ground_force_vz	1_ground_force_px	1_ground_force_py	1_ground_force_pz	1_ground_torque_x	1_ground_torque_y	1_ground_torque_z	2_ground_force_vx	2_ground_force_vy	2_ground_force_vz	2_ground_force_px	2_ground_force_py	2_ground_force_pz	2_ground_torque_x	2_ground_torque_y	2_ground_torque_z
            2.093000	           -0.006818	            0.339945	            0.066686	            0.533855	            0.001751	           -0.175570	           -0.111160	           -0.010104	            0.022972	          -24.183578	          448.313490	           14.879607	            1.039509	            0.000680	           -0.213743	           -0.001843	            0.034156	            0.001134
            2.094000	            0.001082	            0.420396	            0.105224	            0.533855	            0.001751	           -0.175570	           -0.094436	           -0.002903	           -0.122133	          -24.094727	          446.635344	           14.648364	            1.040062	            0.000678	           -0.213490	           -0.000738	            0.013689	            0.000449
            2.095000	           -0.029300	            0.497940	            0.090109	            0.533855	            0.001751	           -0.175570	            0.023187	           -0.005320	            0.023282	          -23.975437	          444.795654	           14.370331	            1.041040	            0.000673	           -0.212920	            0.000031	           -0.000582	           -0.000019
            2.096000	           -0.013617	            0.579566	            0.098026	            0.533855	            0.001751	           -0.175570	           -0.061051	           -0.009250	           -0.039312	          -23.886037	          443.358811	           14.117330	            1.041576	            0.000673	           -0.213098	            0.001219	           -0.022626	           -0.000720
            2.097000	            0.001907	            0.657796	            0.075287	            0.533855	            0.001751	           -0.175570	           -0.077337	           -0.004959	            0.023038	          -23.788893	          441.919058	           13.818258	            1.042583	            0.000669	           -0.212672	            0.001197	           -0.022237	           -0.000695
            2.098000	            0.031377	            0.339185	            0.089623	            0.533855	            0.001751	           -0.175570	            0.022830	           -0.011775	            0.023174	          -23.639246	          439.920687	           13.524091	            1.043729	            0.000665	           -0.212458	            0.002643	           -0.049181	           -0.001512
            2.099000	            0.023512	            0.258001	            0.119999	            0.533855	            0.001751	           -0.175570	           -0.060607	           -0.019924	            0.168315	          -23.542013	          438.562319	           13.279256	            1.044205	            0.000663	           -0.212225	            0.003270	           -0.060923	           -0.001845
            2.100000	            0.017243	            0.657439	            0.098245	            0.533855	            0.001751	           -0.175570	           -0.043992	           -0.010543	            0.105916	          -23.453758	          436.563787	           13.023535	            1.045557	            0.000660	           -0.212084	            0.004325	           -0.080505	           -0.002402
            2.101000	           -0.013883	            0.499390	            0.082488	            0.533855	            0.001751	           -0.175570	           -0.111080	           -0.008362	           -0.018516	          -23.325331	          435.364466	           12.687280	            1.046182	            0.000656	           -0.211629	            0.005200	           -0.097054	           -0.002828
            2.102000	            0.002248	            0.738205	            0.075534	            0.533855	            0.001751	           -0.175570	            0.072961	           -0.008678	            0.002283	          -23.189377	          434.166018	           12.435641	            1.046429	            0.000654	           -0.211327	            0.006370	           -0.119258	           -0.003416
            2.103000	            0.002285	            0.738207	            0.075534	            0.533855	            0.001751	           -0.175570	           -0.060931	           -0.011511	            0.043577	          -23.053196	          433.046387	           12.145917	            1.047658	            0.000651	           -0.211222	            0.007322	           -0.137546	           -0.003858
            2.104000	            0.021556	           -0.219924	            0.095575	            0.533855	            0.001751	           -0.175570	           -0.027049	           -0.004962	            0.085732	          -22.909941	          431.607724	           11.808645	            1.048615	            0.000648	           -0.211011	            0.008005	           -0.150813	           -0.004126
            2.105000	            0.000129	            0.178248	            0.096776	            0.533855	            0.001751	           -0.175570	            0.056528	           -0.011171	            0.189217	          -22.804985	          430.249647	           11.556168	            1.049117	            0.000646	           -0.210844	            0.009374	           -0.176860	           -0.004750
            2.106000	           -0.004247	            1.058344	            0.107080	            0.533855	            0.001751	           -0.175570	           -0.094627	           -0.014898	           -0.081089	          -22.584536	          429.129726	           11.289824	            1.050364	            0.000643	           -0.210739	            0.009410	           -0.178796	           -0.004704
            2.107000	            0.014490	           -0.060640	            0.096043	            0.533855	            0.001751	           -0.175570	           -0.060441	           -0.007206	            0.085655	          -22.455211	          428.409311	           11.040485	            1.050851	            0.000639	           -0.210238	            0.010676	           -0.203674	           -0.005249
            2.108000	           -0.006324	            0.499678	            0.082469	            0.533855	            0.001751	           -0.175570	           -0.211694	           -0.004187	            0.064185	          -22.342410	          427.130031	           10.780800	            1.051579	            0.000636	           -0.209880	            0.011413	           -0.218185	           -0.005507
            2.109000	           -0.000846	           -0.060193	            0.118984	            0.533855	            0.001751	           -0.175570	           -0.027169	           -0.010075	            0.085591	          -22.121070	          426.410746	           10.516287	            1.052265	            0.000635	           -0.209846	            0.012931	           -0.249262	           -0.006147
            2.110000	            0.015395	            0.178786	            0.066152	            0.533855	            0.001751	           -0.175570	           -0.043822	           -0.007342	            0.106230	          -21.985485	          425.051173	           10.286960	            1.053470	            0.000631	           -0.209673	            0.013976	           -0.270201	           -0.006539
            2.111000	            0.007093	            0.020972	            0.088627	            0.533855	            0.001751	           -0.175570	           -0.010801	           -0.004372	            0.023218	          -21.810646	          424.170201	           10.098666	            1.054315	            0.000627	           -0.209232	            0.013650	           -0.265462	           -0.006320
            2.112000	            0.030627	            0.179793	            0.066136	            0.533855	            0.001751	           -0.175570	            0.022781	           -0.005029	            0.064689	          -21.681069	          423.610589	            9.896070	            1.054857	            0.000626	           -0.209133	            0.015836	           -0.309402	           -0.007228
            2.113000	           -0.021590	            0.499087	            0.074781	            0.533855	            0.001751	           -0.175570	           -0.010706	           -0.014001	            0.023026	          -21.507229	          422.249886	            9.697517	            1.055979	            0.000621	           -0.208639	            0.016369	           -0.321374	           -0.007381
            2.114000	           -0.029028	            0.579502	            0.090340	            0.533855	            0.001751	           -0.175570	           -0.061067	           -0.005704	            0.002139	          -21.417207	          421.130576	            9.500063	            1.056774	            0.000618	           -0.208446	            0.017107	           -0.336378	           -0.007588
            2.115000	            0.001497	            0.578693	            0.097983	            0.533855	            0.001751	           -0.175570	            0.006091	           -0.001536	            0.002326	          -21.326103	          420.569401	            9.351441	            1.057618	            0.000615	           -0.208109	            0.017297	           -0.341112	           -0.007585
            2.116000	           -0.031111	            0.019353	            0.111561	            0.533855	            0.001751	           -0.175570	            0.089954	           -0.015772	            0.106395	          -21.189742	          419.609712	            9.162464	            1.058561	            0.000612	           -0.208008	            0.018571	           -0.367748	           -0.008030
            2.117000	            0.007395	            0.100920	            0.104165	            0.533855	            0.001751	           -0.175570	           -0.161311	           -0.007587	           -0.039122	          -21.104963	          419.688229	            9.024694	            1.059176	            0.000610	           -0.207815	            0.018706	           -0.371988	           -0.007999
